<svg width="44" height="36" viewBox="0 0 44 36" fill="none" xmlns="http://www.w3.org/2000/svg">
<g clip-path="url(#clip0_724_2299)">
<path d="M43.7349 14.5911C42.3439 9.46917 36.0019 7.32396 31.7396 10.5217C30.6366 11.3498 29.8895 12.4433 29.2241 13.6136C28.8604 14.2547 28.8346 14.2547 28.465 13.623C27.8632 12.5884 27.2201 11.593 26.2805 10.806C22.252 7.417 15.9599 9.05345 14.1691 13.9952C13.2819 16.4418 13.5742 18.8337 14.6686 21.1573C15.9968 23.9743 17.9707 26.3372 20.1028 28.5712C22.5959 31.1877 25.3692 33.5002 28.2698 35.6659C28.8716 36.1158 28.8716 36.1141 29.4803 35.6659C32.9242 33.1254 36.1386 30.3306 39.0083 27.1576C40.2316 25.8207 41.3216 24.3692 42.2631 22.8236C43.0891 21.4558 43.6787 19.9603 44.0074 18.3992V15.5821C43.9128 15.2498 43.822 14.9194 43.7349 14.5911Z" fill="#474747"/>
<path d="M14.0765 24.5854C12.5032 22.1355 11.3908 19.5489 11.512 16.5483C11.6358 13.494 12.8514 10.9877 15.2482 9.08576C17.2066 7.53212 19.4685 6.86628 21.9814 7.03701C24.5175 7.21286 26.6237 8.28248 28.3964 10.0436C28.7833 10.4277 28.7704 10.4533 29.1486 10.0623C30.5886 8.57528 32.3115 7.59358 34.3515 7.17188C34.8965 7.05835 34.9421 6.97725 34.7641 6.4386C34.2329 4.78899 33.2353 3.32578 31.8902 2.22329C29.71 0.425511 27.1997 -0.295825 24.4023 0.106243C21.665 0.499774 19.5226 1.89122 17.9434 4.14229C17.6425 4.56911 17.6133 4.56911 17.2995 4.12948C15.2113 1.22708 12.382 -0.170339 8.7885 0.0422194C4.62414 0.288923 1.02288 3.42864 0.203593 7.49115C0.136537 7.82521 0.070623 8.15955 0.00585938 8.49418V11.0551C0.0342293 11.1644 0.0729155 11.2728 0.0918288 11.3838C0.305264 12.6332 0.696622 13.8462 1.25414 14.9862C2.77579 18.1805 5.05055 20.8251 7.47059 23.3587C9.01804 24.9807 10.6996 26.4617 12.4044 27.9155C13.969 29.2498 15.6059 30.4944 17.2591 31.7176C17.535 31.9225 17.762 31.9242 18.025 31.7074C18.2675 31.5077 18.534 31.3386 18.7885 31.1551C19.2484 30.8222 19.2467 30.8051 18.8435 30.3928C17.0768 28.5976 15.4339 26.7042 14.0765 24.5854ZM7.46887 4.004C7.21096 3.8512 6.92296 3.68644 6.91952 3.34925C6.91952 2.99242 7.19978 2.78584 7.48692 2.66633C8.90971 2.06878 10.3471 2.06878 11.7699 2.66633C12.057 2.78669 12.3339 2.99584 12.3442 3.34925C12.3545 3.73595 12.0467 3.91437 11.7493 4.05778C11.0933 4.37277 10.3806 4.44021 9.65506 4.49399C8.90885 4.41972 8.14458 4.40094 7.46543 4.004H7.46887Z" fill="#474747"/>
</g>
<defs>
<clipPath id="clip0_724_2299">
<rect width="44" height="36" fill="white"/>
</clipPath>
</defs>
</svg>
