<svg width="49" height="35" viewBox="0 0 49 35" fill="none" xmlns="http://www.w3.org/2000/svg">
<path d="M46.9991 7.25722C46.9991 15.1018 46.989 22.9463 47.0151 30.7909C47.0151 31.4593 46.8427 31.5945 46.2181 31.593C39.9665 31.5663 33.7134 31.5796 27.4603 31.5678C26.9847 31.5416 26.5176 31.7044 26.1561 32.0223C24.8417 33.1527 23.1796 33.1423 21.8565 32.0089C21.5143 31.7034 21.0709 31.5439 20.6175 31.5633C14.3412 31.5767 8.06355 31.5633 1.78731 31.596C1.13085 31.596 0.998966 31.4118 1.00042 30.7731C1.02264 22.9498 1.02748 15.1305 1.01492 7.31515C1.01492 7.14136 1.00478 6.96756 1.01492 6.79525C1.03666 6.49816 0.940998 6.37339 0.617839 6.34071C0.0758595 6.28278 0.00195312 6.51599 0.00195312 7.00767C0.0164446 15.2964 0.0164446 23.5861 0.00195312 31.8767C0.00195312 32.4471 0.128043 32.6076 0.704802 32.6061C7.17378 32.5823 13.6442 32.5942 20.1146 32.5838C20.5429 32.5645 20.9634 32.7061 21.2971 32.9819C22.9984 34.35 25.0533 34.3396 26.7604 32.9581C27.0745 32.6975 27.4712 32.5648 27.8748 32.5853C34.3206 32.5932 40.7669 32.5932 47.2136 32.5853C47.4759 32.5853 47.7382 32.5511 48.0019 32.5333V6.40458C46.9991 6.29318 46.9991 6.29318 46.9991 7.25722Z" fill="#474747"/>
<path d="M3.10261 26.7675C7.45004 26.7378 11.7941 26.7343 16.1348 26.7571C18.6476 26.7675 20.6431 27.8563 22.1183 29.9389C22.5956 30.65 22.9564 31.4362 23.1863 32.2666L23.4008 32.2428V30.8658C23.4008 23.7654 23.4008 16.6651 23.4008 9.56474C23.4113 9.04591 23.3745 8.52721 23.2906 8.01544C22.6052 4.34791 19.762 1.95934 15.9754 1.92518C11.6801 1.89101 7.38338 1.9326 3.08812 1.89844C2.4447 1.89844 2.36355 2.11085 2.36355 2.69017C2.38094 10.458 2.38094 18.2258 2.36355 25.9936C2.3563 26.6071 2.49541 26.772 3.10261 26.7675ZM14.8088 12.3336C13.4563 12.3336 12.1071 12.3336 10.7613 12.3336C9.43536 12.3336 8.11085 12.3336 6.78489 12.3336C6.04727 12.3336 5.62556 11.9994 5.61687 11.4304C5.60817 10.8615 6.02119 10.4887 6.75011 10.4872C9.45035 10.4803 12.1491 10.4803 14.8465 10.4872C15.6029 10.4872 16.0058 10.817 16.0058 11.3963C16.0159 12.0098 15.6073 12.3321 14.8088 12.3336V12.3336ZM16.0087 16.8493C15.9971 17.4152 15.6145 17.7272 14.9088 17.7301C13.5365 17.7301 12.1554 17.7301 10.7889 17.7301C9.43972 17.7301 8.09056 17.7301 6.7414 17.7301C5.99654 17.7301 5.5705 17.384 5.62557 16.8003C5.68643 16.1422 6.09655 15.8912 6.72113 15.8927C9.44407 15.9031 12.167 15.8927 14.89 15.8927C15.6174 15.8971 16.0203 16.2566 16.0087 16.8493V16.8493ZM6.77475 5.07577C8.1239 5.07577 9.4745 5.07577 10.8237 5.07577C12.1728 5.07577 13.5234 5.07577 14.8726 5.07577C15.6058 5.07577 16.013 5.42485 16.0116 6.01159C16.0101 6.59834 15.6015 6.92959 14.8523 6.93107C12.152 6.93702 9.45277 6.93702 6.75446 6.93107C6.01974 6.93107 5.60528 6.57309 5.60818 5.99377C5.61108 5.41445 6.04293 5.07874 6.77475 5.07577V5.07577ZM6.81676 21.2892C9.46966 21.2833 12.1226 21.2833 14.7755 21.2892C14.8958 21.2818 15.0165 21.2848 15.1363 21.2982C15.6768 21.3947 16.0333 21.6962 15.9985 22.2904C15.9638 22.8846 15.6015 23.1609 15.032 23.1609H10.77C9.44407 23.1609 8.1181 23.1609 6.79069 23.1609C6.04583 23.1609 5.63136 22.8296 5.61687 22.2577C5.60238 21.6858 6.05306 21.2907 6.81676 21.2892V21.2892Z" fill="#474747"/>
<path d="M24.7022 32.3997C24.7817 32.2934 24.8534 32.1812 24.9167 32.064C26.1311 28.5376 28.5946 26.7551 32.2479 26.7551C36.4722 26.7551 40.6964 26.7358 44.9192 26.7729C45.5858 26.7729 45.6902 26.5724 45.6887 25.9515C45.6665 18.1827 45.6617 10.4134 45.6743 2.64361C45.6816 2.54472 45.6816 2.44541 45.6743 2.34652C45.6525 2.19798 45.7612 1.94694 45.5061 1.93803C45.2004 1.92912 45.2873 2.20541 45.2873 2.38366C45.2801 3.76808 45.2873 5.15399 45.2801 6.54286C45.2801 6.77608 45.3496 7.02266 45.1815 7.33014C44.3642 6.48493 43.5556 5.68429 42.7919 4.84205C42.4847 4.50188 42.3166 4.51525 42.018 4.84205C41.2616 5.68131 40.4631 6.47602 39.5661 7.42224C39.5661 5.63972 39.5487 4.06368 39.5763 2.48615C39.585 2.0227 39.4516 1.90387 39.0082 1.90832C36.9794 1.93209 34.9506 1.90832 32.9218 1.92169C32.1508 1.92169 31.377 1.86673 30.6104 2.01824C27.031 2.72828 24.6066 5.69171 24.595 9.4751C24.5718 16.5755 24.5848 23.6758 24.595 30.7776C24.5935 31.2678 24.6573 31.758 24.7022 32.3997ZM35.1578 6.53692C36.782 6.5384 38.3692 7.03388 39.7186 7.96062C41.0679 8.88735 42.1186 10.2037 42.7376 11.7429C43.3566 13.2821 43.5162 14.975 43.196 16.6072C42.8758 18.2394 42.0903 19.7375 40.939 20.9118C39.7876 22.0861 38.3223 22.8838 36.7284 23.2039C35.1345 23.524 33.4838 23.3521 31.9852 22.71C30.4867 22.0679 29.2078 20.9844 28.3104 19.5967C27.413 18.209 26.9375 16.5796 26.9441 14.9147C26.9605 12.6912 27.8325 10.5642 29.3706 8.99623C30.9088 7.42824 32.9885 6.54601 35.1578 6.54138V6.53692Z" fill="#474747"/>
<path d="M40.2976 5.70992C40.8439 5.1514 41.4164 4.61961 41.9265 4.02841C42.2656 3.63626 42.4771 3.55159 42.8524 4.00167C43.364 4.61367 43.9596 5.15288 44.6407 5.84806V0.797602C44.6327 0.673952 44.6327 0.549896 44.6407 0.426245C44.6929 0.0177518 44.4494 0.00586813 44.1538 0.00883899C43.022 0.0177516 41.8888 0.0340913 40.7584 0.00883899C40.2991 -0.00452988 40.1411 0.108363 40.1527 0.603011C40.186 2.15826 40.1614 3.7135 40.1715 5.26875C40.1744 5.41283 40.06 5.61634 40.2976 5.70992Z" fill="#474747"/>
<path d="M3.09001 30.3218C6.20277 30.3352 9.32134 30.3322 12.4269 30.3322H20.6623C20.5377 29.7752 20.1711 29.848 19.8407 29.848C14.2441 29.848 8.64748 29.8509 3.05088 29.8569C2.83931 29.8569 2.41907 29.6563 2.4466 30.1079C2.46544 30.5119 2.8625 30.3218 3.09001 30.3218Z" fill="#474747"/>
<path d="M27.3984 30.2793C27.4289 30.2956 27.4506 30.3149 27.4723 30.3149C33.3781 30.3219 39.2838 30.3273 45.1896 30.3313C45.3693 30.3313 45.6084 30.3937 45.591 30.0728C45.5736 29.752 45.32 29.853 45.1562 29.853C39.4418 29.847 33.7278 29.847 28.0143 29.853C27.6941 29.8455 27.4477 29.9035 27.3984 30.2793Z" fill="#474747"/>
<path d="M3.15987 28.3754H18.1716C17.5629 27.9432 16.8833 27.8867 16.1935 27.8867C11.8296 27.8867 7.46624 27.8867 3.10335 27.8867C2.95844 27.8867 2.81352 27.8867 2.66861 27.8867C2.52369 27.8867 2.39907 27.961 2.41791 28.1586C2.41791 28.189 2.4242 28.219 2.43636 28.2468C2.44851 28.2745 2.46626 28.2993 2.48844 28.3195C2.51061 28.3397 2.53671 28.3549 2.56502 28.364C2.59332 28.3732 2.6232 28.376 2.65267 28.3725C2.82222 28.3769 2.99032 28.3754 3.15987 28.3754Z" fill="#474747"/>
<path d="M45.5838 28.1313C45.5679 27.7213 45.223 27.8936 45.023 27.8921C40.5838 27.8832 36.1456 27.8832 31.7083 27.8921C31.0489 27.8678 30.3935 28.0058 29.7969 28.2947C29.9041 28.3467 29.9418 28.3793 29.9751 28.3793C35.0162 28.3793 40.0573 28.3793 45.0984 28.3793C45.281 28.3675 45.5998 28.5041 45.5838 28.1313Z" fill="#474747"/>
<path d="M34.9343 19.0321C34.1242 19.6412 33.3069 20.2398 32.4316 20.8874C34.2561 21.7267 35.9878 21.7193 37.8514 20.8874C36.9689 20.2339 36.1719 19.6471 35.3792 19.0544C35.2285 18.946 35.1039 18.9044 34.9343 19.0321Z" fill="#474747"/>
<path d="M31.4097 16.4477C31.4952 16.1951 31.3908 16.0867 31.2256 15.9634C30.4518 15.3856 29.6808 14.8033 28.7824 14.1289C28.6273 16.2174 29.1475 17.8915 30.475 19.4289C30.8083 18.3579 31.0937 17.3983 31.4097 16.4477Z" fill="#474747"/>
<path d="M38.8827 16.4944C39.1812 17.4391 39.4798 18.3839 39.8102 19.4252C41.1245 17.8744 41.6723 16.2018 41.4622 14.1504C40.6 14.8025 39.8174 15.4011 39.0247 15.9834C38.9428 16.0348 38.8827 16.1158 38.8564 16.2105C38.8301 16.3052 38.8395 16.4065 38.8827 16.4944Z" fill="#474747"/>
<path d="M32.5896 11.7518C32.7679 11.7518 32.9099 11.7295 32.9765 11.5156C33.2765 10.5442 33.5895 9.58458 33.9272 8.51953C31.9549 8.98001 30.5768 10.0376 29.5508 11.7503C30.6318 11.7518 31.6115 11.7518 32.5896 11.7518Z" fill="#474747"/>
<path d="M37.6669 11.7641C38.6436 11.7641 39.6203 11.7641 40.7173 11.7641C39.6783 10.0113 38.2929 8.98189 36.3496 8.52734C36.6887 9.58497 36.9974 10.5371 37.2988 11.4908C37.3168 11.5746 37.3643 11.6488 37.4322 11.6992C37.5 11.7496 37.5835 11.7727 37.6669 11.7641V11.7641Z" fill="#474747"/>
<path d="M35.1452 16.5385C35.3437 16.5385 36.6059 15.4987 36.6146 15.3264C36.645 14.7084 36.0263 13.6151 35.6379 13.5988C34.2554 13.5409 33.7424 13.9746 33.6699 15.264C33.6656 15.4779 34.8887 16.5414 35.1452 16.5385Z" fill="#474747"/>
<path d="M37.2203 17.3984C36.6088 17.7787 36.6088 17.7787 37.5348 18.3031C37.4478 17.954 37.4116 17.651 37.2203 17.3984Z" fill="#474747"/>
<path d="M33.446 17.658C33.446 17.5644 33.1866 17.3877 33.1286 17.4174C32.8141 17.5778 32.8707 17.9269 32.8301 18.2373C33.0547 18.0398 33.4764 18.0561 33.446 17.658Z" fill="#474747"/>
<path d="M35.3766 11.7016C35.5128 11.4046 35.2737 11.1535 35.1925 10.8223C34.9187 11.1 34.9274 11.3852 34.8027 11.6883C35.0302 11.7878 35.3012 11.8606 35.3766 11.7016Z" fill="#474747"/>
<path d="M31.3906 13.7241C31.6341 13.8727 31.7529 14.2544 32.105 14.143C32.1746 14.1222 32.25 13.8192 32.2021 13.7583C31.9877 13.5043 31.6877 13.6706 31.3906 13.7241Z" fill="#474747"/>
<path d="M38.2144 14.2588C38.468 14.0969 38.7434 13.9929 38.91 13.5859C38.5245 13.7464 37.7594 13.2978 38.2144 14.2588Z" fill="#474747"/>
</svg>
